<svg width="20" height="20" viewBox="0 0 20 20" fill="none" xmlns="http://www.w3.org/2000/svg">
<g clip-path="url(#clip0_262_4067)">
<path d="M13.75 0C13.4185 0 13.1005 0.131696 12.8661 0.366116C12.6317 0.600537 12.5 0.918479 12.5 1.25C12.5 2.3475 12.2133 3.33333 8.75 3.33333H3.75C2.75578 3.33444 1.80259 3.72988 1.09957 4.4329C0.396545 5.13592 0.00110286 6.08911 0 7.08333L0 9.58333C0.00228197 10.2589 0.187691 10.9213 0.536497 11.4999C0.885303 12.0785 1.38446 12.5517 1.98083 12.8692L4.62917 18.78C4.79073 19.1431 5.05405 19.4515 5.38726 19.668C5.72047 19.8845 6.10929 19.9999 6.50667 20C6.8106 19.9998 7.10966 19.9237 7.37672 19.7786C7.64378 19.6335 7.87037 19.424 8.03593 19.1691C8.20149 18.9143 8.30077 18.6221 8.32477 18.3191C8.34876 18.0161 8.29671 17.7119 8.17333 17.4342L6.2925 13.3333H8.75C12.2133 13.3333 12.5 14.3192 12.5 15.4167C12.5 15.7482 12.6317 16.0661 12.8661 16.3005C13.1005 16.535 13.4185 16.6667 13.75 16.6667C14.0815 16.6667 14.3995 16.535 14.6339 16.3005C14.8683 16.0661 15 15.7482 15 15.4167V1.25C15 0.918479 14.8683 0.600537 14.6339 0.366116C14.3995 0.131696 14.0815 0 13.75 0V0ZM12.5 11.4258C11.3013 10.9829 10.0268 10.7815 8.75 10.8333H3.75C3.41848 10.8333 3.10054 10.7016 2.86612 10.4672C2.6317 10.2328 2.5 9.91485 2.5 9.58333V7.08333C2.5 6.75181 2.6317 6.43387 2.86612 6.19945C3.10054 5.96503 3.41848 5.83333 3.75 5.83333H8.75C10.0268 5.88514 11.3013 5.68378 12.5 5.24083V11.4258ZM19.8683 13.0592C19.7949 13.2061 19.6933 13.3371 19.5693 13.4447C19.4452 13.5523 19.3012 13.6344 19.1454 13.6863C18.9897 13.7382 18.8252 13.759 18.6614 13.7473C18.4976 13.7356 18.3377 13.6918 18.1908 13.6183L17.3575 13.2017C17.0609 13.0534 16.8354 12.7933 16.7305 12.4787C16.6256 12.1641 16.65 11.8208 16.7983 11.5242C16.9466 11.2276 17.2067 11.002 17.5213 10.8972C17.8359 10.7923 18.1792 10.8167 18.4758 10.965L19.3092 11.3817C19.4561 11.4551 19.5871 11.5567 19.6947 11.6807C19.8023 11.8048 19.8844 11.9488 19.9363 12.1046C19.9882 12.2603 20.009 12.4248 19.9973 12.5886C19.9856 12.7524 19.9418 12.9123 19.8683 13.0592ZM16.7983 5.1425C16.7249 4.99565 16.681 4.83576 16.6694 4.67196C16.6577 4.50817 16.6784 4.34368 16.7304 4.1879C16.7823 4.03212 16.8644 3.88809 16.972 3.76406C17.0796 3.64002 17.2106 3.5384 17.3575 3.465L18.1908 3.04833C18.4874 2.90003 18.8308 2.87563 19.1454 2.98049C19.46 3.08536 19.72 3.3109 19.8683 3.6075C20.0166 3.9041 20.041 4.24746 19.9362 4.56206C19.8313 4.87665 19.6058 5.1367 19.3092 5.285L18.4758 5.70167C18.329 5.77514 18.1691 5.81896 18.0053 5.83063C17.8415 5.84229 17.677 5.82156 17.5212 5.76964C17.3655 5.71771 17.2214 5.6356 17.0974 5.52799C16.9734 5.42038 16.8717 5.28939 16.7983 5.1425ZM16.6667 8.33333C16.6667 8.00181 16.7984 7.68387 17.0328 7.44945C17.2672 7.21503 17.5851 7.08333 17.9167 7.08333H18.75C19.0815 7.08333 19.3995 7.21503 19.6339 7.44945C19.8683 7.68387 20 8.00181 20 8.33333C20 8.66485 19.8683 8.9828 19.6339 9.21722C19.3995 9.45164 19.0815 9.58333 18.75 9.58333H17.9167C17.5851 9.58333 17.2672 9.45164 17.0328 9.21722C16.7984 8.9828 16.6667 8.66485 16.6667 8.33333Z" fill="#7572B7"/>
</g>
<defs>
<clipPath id="clip0_262_4067">
<rect width="20" height="20" fill="white"/>
</clipPath>
</defs>
</svg>
