<svg width="32" height="32" viewBox="0 0 32 32" fill="none" xmlns="http://www.w3.org/2000/svg">
<path d="M16 29.2401C9.28 29.2401 3.8 23.7734 3.8 17.0401V14.5334C3.8 14.0134 4.22667 13.6001 4.73333 13.6001C5.24 13.6001 5.66667 14.0268 5.66667 14.5334V17.0401C5.66667 22.7334 10.2933 27.3601 15.9867 27.3601C21.68 27.3601 26.3067 22.7334 26.3067 17.0401V14.5334C26.3067 14.0134 26.7333 13.6001 27.24 13.6001C27.7467 13.6001 28.1733 14.0268 28.1733 14.5334V17.0401C28.2 23.7734 22.72 29.2401 16 29.2401Z" fill="#7572B7"/>
<path d="M16 2.66675C11.52 2.66675 7.86667 6.32008 7.86667 10.8001V17.0534C7.86667 21.5334 11.52 25.1867 16 25.1867C20.48 25.1867 24.1333 21.5334 24.1333 17.0534V10.8001C24.1333 6.32008 20.48 2.66675 16 2.66675ZM18.9067 14.1201C18.8133 14.4801 18.48 14.7201 18.12 14.7201C18.0533 14.7201 17.9733 14.7067 17.9067 14.6934C16.5467 14.3201 15.1067 14.3201 13.7467 14.6934C13.3067 14.8134 12.8667 14.5601 12.7467 14.1201C12.6267 13.6934 12.88 13.2401 13.32 13.1201C14.96 12.6667 16.6933 12.6667 18.3333 13.1201C18.7733 13.2401 19.0267 13.6801 18.9067 14.1201ZM20.04 10.4267C19.92 10.7601 19.6133 10.9601 19.28 10.9601C19.1867 10.9601 19.0933 10.9467 19 10.9067C16.96 10.1601 14.72 10.1601 12.68 10.9067C12.2533 11.0667 11.7867 10.8534 11.6267 10.4267C11.48 10.0134 11.6933 9.54675 12.12 9.38675C14.52 8.52008 17.16 8.52008 19.5467 9.38675C19.9733 9.54675 20.1867 10.0134 20.04 10.4267Z" fill="#7572B7"/>
</svg>
